# xmcd CD database file
#
# Track frame offsets:
#	150
#	13680
#	32307
#	46062
#	57695
#	66122
#	75595
#	86032
#	103629
#	111132
#	122207
#	131500
#	139280
#	151955
#	165852
#	173337
#	184280
#	199790
#	213497
#	223250
#	232800
#	242880
#	254025
#	261637
#	276560
#	291867
#	305607
#	316507
#	328357
#
# Disc length: 4540 seconds
#
# Revision: 2
# Processed by: cddbd v1.5.2PL0 Copyright (c) Steve Scherf et al.
# Submitted via: CDex 1.70beta2
#
DISCID=b211ba1d
DTITLE=Greenhorns - Zlatá éra 1967 - 1974 [CD2)
DYEAR=2007
DGENRE=Country
TTITLE0=Blízko Little Big Hornu
TTITLE1=Oranžový expres
TTITLE2=Nečekej už dál
TTITLE3=Poslední den
TTITLE4=Za chvíli už budu v dáli
TTITLE5=Já v poslední době
TTITLE6=Když náš táta hrál
TTITLE7=Co se bude dít
TTITLE8=Kamarád
TTITLE9=Šest bílých koní
TTITLE10=Žádnej vlak
TTITLE11=Lodní zvon zvoní
TTITLE12=Blues hvízdavého vlaku
TTITLE13=Modlitba
TTITLE14=Šlapej dál
TTITLE15=Toulavej song
TTITLE16=Poslední sklenka
TTITLE17=Na Vánoce ráno
TTITLE18=Značkovací železo
TTITLE19=Šest dní na silnici
TTITLE20=Tak já jdu dál
TTITLE21=Neváhej
TTITLE22=Vlak v 0,5
TTITLE23=Divnej smích
TTITLE24=El Paso
TTITLE25=A slunce pálí jen
TTITLE26=Casey Jones
TTITLE27=Bílej sníh
TTITLE28=Bluegrasový part č. 1
EXTD=YEAR: 2007
EXTT0=
EXTT1=
EXTT2=
EXTT3=
EXTT4=
EXTT5=
EXTT6=
EXTT7=
EXTT8=
EXTT9=
EXTT10=
EXTT11=
EXTT12=
EXTT13=
EXTT14=
EXTT15=
EXTT16=
EXTT17=
EXTT18=
EXTT19=
EXTT20=
EXTT21=
EXTT22=
EXTT23=
EXTT24=
EXTT25=
EXTT26=
EXTT27=
EXTT28=
PLAYORDER=
